<?xml version="1.0" standalone="no"?>
<!DOCTYPE svg PUBLIC "-//W3C//DTD SVG 20010904//EN"
 "http://www.w3.org/TR/2001/REC-SVG-20010904/DTD/svg10.dtd">
<svg version="1.0" xmlns="http://www.w3.org/2000/svg"
 width="2549.000000pt" height="2549.000000pt" viewBox="0 0 2549.000000 2549.000000"
 preserveAspectRatio="xMidYMid meet">
<g transform="translate(0.000000,2549.000000) scale(0.100000,-0.100000)"
fill="#000000" stroke="none">
<path d="M12125 25469 c-1718 -88 -3341 -502 -4905 -1250 -102 -49 -193 -89
-202 -89 -25 0 -48 -11 -48 -24 0 -6 -93 -60 -207 -121 -1364 -727 -2606
-1720 -3629 -2900 -1690 -1948 -2746 -4359 -3028 -6915 -31 -276 -54 -556 -62
-766 -6 -141 -9 -162 -27 -181 -19 -21 -19 -24 -4 -41 15 -17 17 -60 17 -428
0 -816 62 -1520 201 -2286 521 -2880 2018 -5478 4269 -7409 1224 -1050 2674
-1870 4215 -2385 1130 -377 2231 -583 3445 -644 251 -13 949 -13 1200 0 1676
85 3235 465 4735 1155 1748 804 3329 2034 4556 3545 382 470 828 1112 1080
1552 24 42 54 82 67 88 16 7 22 16 18 28 -4 11 33 87 99 207 800 1442 1316
3070 1499 4725 56 500 76 876 76 1420 0 415 -8 643 -35 995 -102 1323 -414
2631 -920 3860 -277 672 -667 1421 -1032 1983 -40 62 -73 119 -73 127 0 8 -6
18 -13 22 -7 4 -41 49 -76 100 -56 82 -62 95 -56 127 7 34 6 35 -28 41 -31 6
-44 20 -103 103 -732 1038 -1701 2037 -2724 2807 -1115 840 -2319 1475 -3625
1911 -1130 377 -2231 583 -3445 644 -227 11 -1003 11 -1235 -1z m1255 -210
c1370 -63 2744 -360 4014 -869 491 -196 1050 -459 1042 -490 -3 -8 -139 -575
-302 -1260 -164 -685 -299 -1247 -300 -1248 -3 -5 -7084 1798 -7103 1808 -9 5
318 325 1065 1042 l1078 1034 140 -3 c78 -2 242 -8 366 -14z m-1483 -15 c-3
-3 -12 -4 -19 -1 -8 3 -5 6 6 6 11 1 17 -2 13 -5z m-72 -14 c-81 -23 -3678
-841 -3681 -837 -5 5 190 80 451 174 896 321 1949 554 2920 647 88 9 176 17
195 19 19 2 60 4 90 4 46 1 50 0 25 -7z m-3138 -1727 c882 -225 1602 -412
1600 -416 -6 -18 -7161 -6877 -7167 -6870 -7 8 -831 3390 -830 3407 0 16 261
388 436 622 1052 1409 2387 2579 3934 3446 173 97 402 218 415 218 6 0 731
-183 1612 -407z m10283 127 c1478 -848 2763 -1978 3784 -3329 80 -107 145
-196 142 -198 -9 -9 -4856 1232 -4856 1243 0 11 574 2415 586 2455 5 19 67
-13 344 -171z m-4790 -1526 c1977 -504 3597 -918 3599 -920 3 -2 -1 -25 -7
-52 -54 -233 -1894 -7907 -1896 -7910 -3 -2 -9782 24 -11495 31 l-544 2 -329
1350 c-180 743 -327 1355 -326 1362 2 6 1657 1598 3678 3538 3312 3178 3677
3525 3700 3520 14 -3 1643 -418 3620 -921z m9323 -2911 c659 -1103 1127 -2239
1427 -3468 192 -784 293 -1495 345 -2420 l6 -110 -1618 3 c-890 2 -1618 4
-1619 5 -5 6 1321 6197 1328 6197 4 0 63 -93 131 -207z m-21488 -2013 l-44
-2074 -68 -68 c-84 -84 -1648 -1586 -1649 -1584 -4 3 29 420 46 591 188 1827
769 3565 1721 5157 19 31 35 55 36 54 1 -1 -18 -935 -42 -2076z m1299 -2651
c170 -698 307 -1271 305 -1273 -2 -2 -336 -1 -741 2 l-738 5 0 46 c1 25 9 419
19 874 l18 828 164 157 c90 86 274 264 409 394 135 130 247 237 250 237 3 1
144 -571 314 -1270z m-1388 -1482 c5 -5 -133 -6327 -137 -6332 -11 -10 -291
537 -420 816 -626 1369 -998 2826 -1104 4332 -21 309 -37 865 -29 1042 l6 150
842 -3 c462 -2 842 -5 842 -5z m7579 -18 c2811 -6 5382 -14 5715 -18 l606 -6
-331 -1380 -330 -1380 -35 -11 c-187 -61 -9864 -2814 -9870 -2807 -5 5 -1158
4731 -1367 5601 l-5 22 253 -5 c140 -3 2553 -10 5364 -16z m11291 -29 l990 0
-98 -462 c-54 -254 -100 -463 -101 -463 -4 -3 -6184 -1765 -6189 -1765 -2 0
141 606 319 1348 177 741 323 1349 323 1351 0 2 847 1 1883 -2 1035 -4 2328
-7 2873 -7z m4490 -115 c9 -37 -13 -772 -31 -1025 -102 -1438 -441 -2815
-1018 -4135 -178 -410 -554 -1143 -597 -1166 -15 -9 -3193 -860 -3196 -856 -3
5 1316 6183 1324 6196 6 10 3454 1006 3499 1010 7 1 15 -10 19 -24z m-3750
-1062 c-3 -10 -301 -1404 -662 -3098 -361 -1694 -658 -3081 -659 -3083 -7 -8
-6340 -1699 -6342 -1693 -3 8 1462 6119 1468 6125 7 6 6162 1764 6182 1765 13
1 17 -4 13 -16z m-16209 -4675 c-3 -8 -6 -5 -6 6 -1 11 2 17 5 13 3 -3 4 -12
1 -19z m414 -2588 c344 -1416 626 -2576 624 -2578 -8 -9 -468 284 -725 461
-1351 935 -2536 2160 -3417 3532 -152 238 -186 295 -178 303 15 16 3060 878
3064 868 3 -6 287 -1170 632 -2586z m-404 2548 c-3 -8 -6 -5 -6 6 -1 11 2 17
5 13 3 -3 4 -12 1 -19z m10 -40 c-3 -8 -6 -5 -6 6 -1 11 2 17 5 13 3 -3 4 -12
1 -19z m10 -40 c-3 -8 -6 -5 -6 6 -1 11 2 17 5 13 3 -3 4 -12 1 -19z m10 -40
c-3 -8 -6 -5 -6 6 -1 11 2 17 5 13 3 -3 4 -12 1 -19z m10 -40 c-3 -8 -6 -5 -6
6 -1 11 2 17 5 13 3 -3 4 -12 1 -19z m40 -170 c-3 -8 -6 -5 -6 6 -1 11 2 17 5
13 3 -3 4 -12 1 -19z m10 -40 c-3 -8 -6 -5 -6 6 -1 11 2 17 5 13 3 -3 4 -12 1
-19z m10 -40 c-3 -8 -6 -5 -6 6 -1 11 2 17 5 13 3 -3 4 -12 1 -19z m10 -40
c-3 -8 -6 -5 -6 6 -1 11 2 17 5 13 3 -3 4 -12 1 -19z m70 -290 c-3 -8 -6 -5
-6 6 -1 11 2 17 5 13 3 -3 4 -12 1 -19z m10 -40 c-3 -8 -6 -5 -6 6 -1 11 2 17
5 13 3 -3 4 -12 1 -19z m17852 -225 c-138 -225 -361 -549 -584 -848 -711 -953
-1568 -1812 -2517 -2523 -266 -200 -542 -393 -546 -382 -5 12 398 1894 407
1903 7 7 3251 1885 3259 1886 2 1 -7 -16 -19 -36z m-3695 -2957 c-112 -527
-204 -961 -204 -965 0 -3 -12 -13 -28 -22 -15 -9 -99 -60 -187 -114 -1660
-1014 -3543 -1624 -5485 -1780 -230 -18 -591 -38 -596 -32 -3 2 1504 875 3348
1940 1844 1065 3353 1935 3354 1934 2 -1 -89 -434 -202 -961z m-6104 492 c0
-7 -184 -778 -408 -1713 l-408 -1700 -219 3 c-1846 25 -3687 471 -5330 1289
-279 139 -535 276 -529 283 4 4 6858 1844 6887 1849 4 0 7 -5 7 -11z"/>
</g>
</svg>
