<?xml version="1.0" encoding="UTF-8"?>
<svg xmlns="http://www.w3.org/2000/svg" xmlns:xlink="http://www.w3.org/1999/xlink" width="3186.25" height="3186.25" viewBox="0 0 3186.25 3186.25">
<path fill-rule="nonzero" fill="rgb(0%, 0%, 0%)" fill-opacity="1" d="M 1212.5 2.101562 C 1040.699219 10.898438 878.398438 52.300781 722 127.101562 C 711.800781 132 702.699219 136 701.800781 136 C 699.300781 136 697 137.101562 697 138.398438 C 697 139 687.699219 144.398438 676.300781 150.5 C 539.898438 223.199219 415.699219 322.5 313.398438 440.5 C 144.398438 635.300781 38.800781 876.398438 10.601562 1132 C 7.5 1159.601562 5.199219 1187.601562 4.398438 1208.601562 C 3.800781 1222.699219 3.5 1224.800781 1.699219 1226.699219 C -0.199219 1228.800781 -0.199219 1229.101562 1.300781 1230.800781 C 2.800781 1232.5 3 1236.800781 3 1273.601562 C 3 1355.199219 9.199219 1425.601562 23.101562 1502.199219 C 75.199219 1790.199219 224.898438 2050 450 2243.101562 C 572.398438 2348.101562 717.398438 2430.101562 871.5 2481.601562 C 984.5 2519.300781 1094.601562 2539.898438 1216 2546 C 1241.101562 2547.300781 1310.898438 2547.300781 1336 2546 C 1503.601562 2537.5 1659.5 2499.5 1809.5 2430.5 C 1984.300781 2350.101562 2142.398438 2227.101562 2265.101562 2076 C 2303.300781 2029 2347.898438 1964.800781 2373.101562 1920.800781 C 2375.5 1916.601562 2378.5 1912.601562 2379.800781 1912 C 2381.398438 1911.300781 2382 1910.398438 2381.601562 1909.199219 C 2381.199219 1908.101562 2384.898438 1900.5 2391.5 1888.5 C 2471.5 1744.300781 2523.101562 1581.5 2541.398438 1416 C 2547 1366 2549 1328.398438 2549 1274 C 2549 1232.5 2548.199219 1209.699219 2545.5 1174.5 C 2535.300781 1042.199219 2504.101562 911.398438 2453.5 788.5 C 2425.800781 721.300781 2386.800781 646.398438 2350.300781 590.199219 C 2346.300781 584 2343 578.300781 2343 577.5 C 2343 576.699219 2342.398438 575.699219 2341.699219 575.300781 C 2341 574.898438 2337.601562 570.398438 2334.101562 565.300781 C 2328.5 557.101562 2327.898438 555.800781 2328.5 552.601562 C 2329.199219 549.199219 2329.101562 549.101562 2325.699219 548.5 C 2322.601562 547.898438 2321.300781 546.5 2315.398438 538.199219 C 2242.199219 434.398438 2145.300781 334.5 2043 257.5 C 1931.5 173.5 1811.101562 110 1680.5 66.398438 C 1567.5 28.699219 1457.398438 8.101562 1336 2 C 1313.300781 0.898438 1235.699219 0.898438 1212.5 2.101562 Z M 1338 23.101562 C 1475 29.398438 1612.398438 59.101562 1739.398438 110 C 1788.5 129.601562 1844.398438 155.898438 1843.601562 159 C 1843.300781 159.800781 1829.699219 216.5 1813.398438 285 C 1797 353.5 1783.5 409.699219 1783.398438 409.800781 C 1783.101562 410.300781 1075 230 1073.101562 229 C 1072.199219 228.5 1104.898438 196.5 1179.601562 124.800781 L 1287.398438 21.398438 L 1301.398438 21.699219 C 1309.199219 21.898438 1325.601562 22.5 1338 23.101562 Z M 1189.699219 24.601562 C 1189.398438 24.898438 1188.5 25 1187.800781 24.699219 C 1187 24.398438 1187.300781 24.101562 1188.398438 24.101562 C 1189.5 24 1190.101562 24.300781 1189.699219 24.601562 Z M 1182.5 26 C 1174.398438 28.300781 814.699219 110.101562 814.398438 109.699219 C 813.898438 109.199219 833.398438 101.699219 859.5 92.300781 C 949.101562 60.199219 1054.398438 36.898438 1151.5 27.601562 C 1160.300781 26.699219 1169.101562 25.898438 1171 25.699219 C 1172.898438 25.5 1177 25.300781 1180 25.300781 C 1184.601562 25.199219 1185 25.300781 1182.5 26 Z M 868.699219 198.699219 C 956.898438 221.199219 1028.898438 239.898438 1028.699219 240.300781 C 1028.101562 242.101562 312.601562 928 312 927.300781 C 311.300781 926.5 228.898438 588.300781 229 586.601562 C 229 585 255.101562 547.800781 272.601562 524.398438 C 377.800781 383.5 511.300781 266.5 666 179.800781 C 683.300781 170.101562 706.199219 158 707.5 158 C 708.101562 158 780.601562 176.300781 868.699219 198.699219 Z M 1897 186 C 2044.800781 270.800781 2173.300781 383.800781 2275.398438 518.898438 C 2283.398438 529.601562 2289.898438 538.5 2289.601562 538.699219 C 2288.699219 539.601562 1804 415.5 1804 414.398438 C 1804 413.300781 1861.398438 172.898438 1862.601562 168.898438 C 1863.101562 167 1869.300781 170.199219 1897 186 Z M 1418 338.601562 C 1615.699219 389 1777.699219 430.398438 1777.898438 430.601562 C 1778.199219 430.800781 1777.800781 433.101562 1777.199219 435.800781 C 1771.800781 459.101562 1587.800781 1226.5 1587.601562 1226.800781 C 1587.300781 1227 609.398438 1224.398438 438.101562 1223.699219 L 383.699219 1223.5 L 350.800781 1088.5 C 332.800781 1014.199219 318.101562 953 318.199219 952.300781 C 318.398438 951.699219 483.898438 792.5 686 598.5 C 1017.199219 280.699219 1053.699219 246 1056 246.5 C 1057.398438 246.800781 1220.300781 288.300781 1418 338.601562 Z M 2350.300781 629.699219 C 2416.199219 740 2463 853.601562 2493 976.5 C 2512.199219 1054.898438 2522.300781 1126 2527.5 1218.5 L 2528.101562 1229.5 L 2366.300781 1229.199219 C 2277.300781 1229 2204.5 1228.800781 2204.398438 1228.699219 C 2203.898438 1228.101562 2336.5 609 2337.199219 609 C 2337.601562 609 2343.5 618.300781 2350.300781 629.699219 Z M 201.5 831 L 197.101562 1038.398438 L 190.300781 1045.199219 C 181.898438 1053.601562 25.5 1203.800781 25.398438 1203.601562 C 25 1203.300781 28.300781 1161.601562 30 1144.5 C 48.800781 961.800781 106.898438 788 202.101562 628.800781 C 204 625.699219 205.601562 623.300781 205.699219 623.398438 C 205.800781 623.5 203.898438 716.898438 201.5 831 Z M 331.398438 1096.101562 C 348.398438 1165.898438 362.101562 1223.199219 361.898438 1223.398438 C 361.699219 1223.601562 328.300781 1223.5 287.800781 1223.199219 L 214 1222.699219 L 214 1218.101562 C 214.101562 1215.601562 214.898438 1176.199219 215.898438 1130.699219 L 217.699219 1047.898438 L 234.101562 1032.199219 C 243.101562 1023.601562 261.5 1005.800781 275 992.800781 C 288.5 979.800781 299.699219 969.101562 300 969.101562 C 300.300781 969 314.398438 1026.199219 331.398438 1096.101562 Z M 192.601562 1244.300781 C 193.101562 1244.800781 179.300781 1877 178.898438 1877.5 C 177.800781 1878.5 149.800781 1823.800781 136.898438 1795.898438 C 74.300781 1659 37.101562 1513.300781 26.5 1362.699219 C 24.398438 1331.800781 22.800781 1276.199219 23.601562 1258.5 L 24.199219 1243.5 L 108.398438 1243.800781 C 154.601562 1244 192.601562 1244.300781 192.601562 1244.300781 Z M 950.5 1246.101562 C 1231.601562 1246.699219 1488.699219 1247.5 1522 1247.898438 L 1582.601562 1248.5 L 1549.5 1386.5 L 1516.5 1524.5 L 1513 1525.601562 C 1494.300781 1531.699219 526.601562 1807 526 1806.300781 C 525.5 1805.800781 410.199219 1333.199219 389.300781 1246.199219 L 388.800781 1244 L 414.101562 1244.5 C 428.101562 1244.800781 669.398438 1245.5 950.5 1246.101562 Z M 2079.601562 1249 L 2178.601562 1249 L 2168.800781 1295.199219 C 2163.398438 1320.601562 2158.800781 1341.5 2158.699219 1341.5 C 2158.300781 1341.800781 1540.300781 1518 1539.800781 1518 C 1539.601562 1518 1553.898438 1457.398438 1571.699219 1383.199219 C 1589.398438 1309.101562 1604 1248.300781 1604 1248.101562 C 1604 1247.898438 1688.699219 1248 1792.300781 1248.300781 C 1895.800781 1248.699219 2025.101562 1249 2079.601562 1249 Z M 2528.601562 1260.5 C 2529.5 1264.199219 2527.300781 1337.699219 2525.5 1363 C 2515.300781 1506.800781 2481.398438 1644.5 2423.699219 1776.5 C 2405.898438 1817.5 2368.300781 1890.800781 2364 1893.101562 C 2362.5 1894 2044.699219 1979.101562 2044.398438 1978.699219 C 2044.101562 1978.199219 2176 1360.398438 2176.800781 1359.101562 C 2177.398438 1358.101562 2522.199219 1258.5 2526.699219 1258.101562 C 2527.398438 1258 2528.199219 1259.101562 2528.601562 1260.5 Z M 2153.601562 1366.699219 C 2153.300781 1367.699219 2123.5 1507.101562 2087.398438 1676.5 C 2051.300781 1845.898438 2021.601562 1984.601562 2021.5 1984.800781 C 2020.800781 1985.601562 1387.5 2154.699219 1387.300781 2154.101562 C 1387 2153.300781 1533.5 1542.199219 1534.101562 1541.601562 C 1534.800781 1541 2150.300781 1365.199219 2152.300781 1365.101562 C 2153.601562 1365 2154 1365.5 2153.601562 1366.699219 Z M 532.699219 1834.199219 C 532.398438 1835 532.101562 1834.699219 532.101562 1833.601562 C 532 1832.5 532.300781 1831.898438 532.601562 1832.300781 C 532.898438 1832.601562 533 1833.5 532.699219 1834.199219 Z M 574.101562 2093 C 608.5 2234.601562 636.699219 2350.601562 636.5 2350.800781 C 635.699219 2351.699219 589.699219 2322.398438 564 2304.699219 C 428.898438 2211.199219 310.398438 2088.699219 222.300781 1951.5 C 207.101562 1927.699219 203.699219 1922 204.5 1921.199219 C 206 1919.601562 510.5 1833.398438 510.898438 1834.398438 C 511.199219 1835 539.601562 1951.398438 574.101562 2093 Z M 533.699219 1838.199219 C 533.398438 1839 533.101562 1838.699219 533.101562 1837.601562 C 533 1836.5 533.300781 1835.898438 533.601562 1836.300781 C 533.898438 1836.601562 534 1837.5 533.699219 1838.199219 Z M 534.699219 1842.199219 C 534.398438 1843 534.101562 1842.699219 534.101562 1841.601562 C 534 1840.5 534.300781 1839.898438 534.601562 1840.300781 C 534.898438 1840.601562 535 1841.5 534.699219 1842.199219 Z M 535.699219 1846.199219 C 535.398438 1847 535.101562 1846.699219 535.101562 1845.601562 C 535 1844.5 535.300781 1843.898438 535.601562 1844.300781 C 535.898438 1844.601562 536 1845.5 535.699219 1846.199219 Z M 536.699219 1850.199219 C 536.398438 1851 536.101562 1850.699219 536.101562 1849.601562 C 536 1848.5 536.300781 1847.898438 536.601562 1848.300781 C 536.898438 1848.601562 537 1849.5 536.699219 1850.199219 Z M 537.699219 1854.199219 C 537.398438 1855 537.101562 1854.699219 537.101562 1853.601562 C 537 1852.5 537.300781 1851.898438 537.601562 1852.300781 C 537.898438 1852.601562 538 1853.5 537.699219 1854.199219 Z M 541.699219 1871.199219 C 541.398438 1872 541.101562 1871.699219 541.101562 1870.601562 C 541 1869.5 541.300781 1868.898438 541.601562 1869.300781 C 541.898438 1869.601562 542 1870.5 541.699219 1871.199219 Z M 542.699219 1875.199219 C 542.398438 1876 542.101562 1875.699219 542.101562 1874.601562 C 542 1873.5 542.300781 1872.898438 542.601562 1873.300781 C 542.898438 1873.601562 543 1874.5 542.699219 1875.199219 Z M 543.699219 1879.199219 C 543.398438 1880 543.101562 1879.699219 543.101562 1878.601562 C 543 1877.5 543.300781 1876.898438 543.601562 1877.300781 C 543.898438 1877.601562 544 1878.5 543.699219 1879.199219 Z M 544.699219 1883.199219 C 544.398438 1884 544.101562 1883.699219 544.101562 1882.601562 C 544 1881.5 544.300781 1880.898438 544.601562 1881.300781 C 544.898438 1881.601562 545 1882.5 544.699219 1883.199219 Z M 551.699219 1912.199219 C 551.398438 1913 551.101562 1912.699219 551.101562 1911.601562 C 551 1910.5 551.300781 1909.898438 551.601562 1910.300781 C 551.898438 1910.601562 552 1911.5 551.699219 1912.199219 Z M 552.699219 1916.199219 C 552.398438 1917 552.101562 1916.699219 552.101562 1915.601562 C 552 1914.5 552.300781 1913.898438 552.601562 1914.300781 C 552.898438 1914.601562 553 1915.5 552.699219 1916.199219 Z M 2337.898438 1938.699219 C 2324.101562 1961.199219 2301.800781 1993.601562 2279.5 2023.5 C 2208.398438 2118.800781 2122.699219 2204.699219 2027.800781 2275.800781 C 2001.199219 2295.800781 1973.601562 2315.101562 1973.199219 2314 C 1972.699219 2312.800781 2013 2124.601562 2013.898438 2123.699219 C 2014.601562 2123 2339 1935.199219 2339.800781 1935.101562 C 2340 1935 2339.101562 1936.699219 2337.898438 1938.699219 Z M 1968.398438 2234.398438 C 1957.199219 2287.101562 1948 2330.5 1948 2330.898438 C 1948 2331.199219 1946.800781 2332.199219 1945.199219 2333.101562 C 1943.699219 2334 1935.300781 2339.101562 1926.5 2344.5 C 1760.5 2445.898438 1572.199219 2506.898438 1378 2522.5 C 1355 2524.300781 1318.898438 2526.300781 1318.398438 2525.699219 C 1318.101562 2525.5 1468.800781 2438.199219 1653.199219 2331.699219 C 1837.601562 2225.199219 1988.5 2138.199219 1988.601562 2138.300781 C 1988.800781 2138.398438 1979.699219 2181.699219 1968.398438 2234.398438 Z M 1358 2185.199219 C 1358 2185.898438 1339.601562 2263 1317.199219 2356.5 L 1276.398438 2526.5 L 1254.5 2526.199219 C 1069.898438 2523.699219 885.800781 2479.101562 721.5 2397.300781 C 693.601562 2383.398438 668 2369.699219 668.601562 2369 C 669 2368.601562 1354.398438 2184.601562 1357.300781 2184.101562 C 1357.699219 2184.101562 1358 2184.601562 1358 2185.199219 Z M 1358 2185.199219 "/>
</svg>
